<svg xmlns:xlink="http://www.w3.org/1999/xlink" xmlns="http://www.w3.org/2000/svg" viewBox="0 0 267.4500013046795 36" preserveAspectRatio="xMidYMid meet" class="css-116ckqy" id="acdhdghe" width="267.4500013046795"  height="36" ><defs id="SvgjsDefs1241"></defs><g id="SvgjsG1242" featurekey="nameLeftFeature-0" transform="matrix(2.5714285714285716,0,0,2.5714285714285716,-3.085716247558594,-15.42857142857143)" fill="#111111"><path d="M12.22 20 l-3.1 0 l-2.98 -4.66 l-0.04 0 l-1.98 0 l0 4.66 l-2.92 0 l0 -14 l4.9 0 c3.14 0 5.18 1.9 5.18 4.76 c0 1.9 -0.92 3.32 -2.48 4.04 z M4.12 8.68 l0 4.14 l1.8 0 c1.44 0 2.44 -0.56 2.44 -2.06 c0 -1.48 -1 -2.08 -2.44 -2.08 l-1.8 0 z M16.94 17.32 l5.92 0 l0 2.68 l-6.32 0 l-2.52 0 l0 -14 l2.92 0 l5.74 0 l0 2.68 l-5.74 0 l0 2.96 l4.34 0 l0 2.64 l-4.34 0 l0 3.04 z M33.82 8.66 l-5.86 0 l0 3.06 l4.82 0 l0 2.5 l-4.82 0 l0 5.78 l-3 0 l0 -14 l8.86 0 l0 2.66 z M38.63999999999999 6 l0 14 l-2.92 0 l0 -14 l2.92 0 z M50.199999999999996 6 l2.92 0 l0 14 l-2.22 0 l-6.94 -8.68 l0 8.68 l-2.92 0 l0 -14 l2.26 0 l6.9 8.7 l0 -8.7 z" fill="#111111"></path></g><g id="SvgjsG1243" featurekey="inlineSymbolFeature-0" transform="matrix(0.4235294117647059,0,0,0.4235294117647059,133.2377399668974,-3.176470588235294)" fill="#111111"><title xmlns="http://www.w3.org/2000/svg">cleaning</title><path xmlns="http://www.w3.org/2000/svg" d="M74.35,58.11C60,68.57,58.91,80.5,58.91,80.5c28.45-8.17,27.48-30.24,27.48-30.24C44.16,54.18,43.93,92.5,43.93,92.5,53.24,66.65,74.35,58.11,74.35,58.11Z" fill="#111111"></path><path xmlns="http://www.w3.org/2000/svg" d="M45.24,70.83s0-.11.09-.17a46.23,46.23,0,0,1,4.83-7.35c-.93-2.38-7.85-17.25-36.43-23,0,0-3.5,32,26.59,44.46a53.39,53.39,0,0,1,3-9.82C37.71,67.06,30.66,59.38,20.55,50,31.34,57,38.48,62.92,45.24,70.83Z" fill="#111111"></path><path xmlns="http://www.w3.org/2000/svg" d="M44.16,35.23c0-3.44-6-13-6-13s-6.26,9.58-6.26,13a6.13,6.13,0,1,0,12.26,0Z" fill="#111111"></path><path xmlns="http://www.w3.org/2000/svg" d="M55.28,16.9c0-2.48-4.33-9.4-4.33-9.4s-4.52,6.92-4.52,9.4a4.43,4.43,0,1,0,8.85,0Z" fill="#111111"></path><path xmlns="http://www.w3.org/2000/svg" d="M60.09,52.1a8.29,8.29,0,0,0,8.22-8.35c0-4.61-8-17.44-8-17.44s-8.39,12.83-8.39,17.44A8.28,8.28,0,0,0,60.09,52.1Z" fill="#111111"></path></g><g id="SvgjsG1244" featurekey="nameRightFeature-0" transform="matrix(2.500000066227385,0,0,2.500000066227385,172.00000158945724,-14.500003245141858)" fill="#111111"><path d="M10.36 6 l2.92 0 l0 14 l-2.22 0 l-6.94 -8.68 l0 8.68 l-2.92 0 l0 -14 l2.26 0 l6.9 8.7 l0 -8.7 z M27.44 18.5 c-1.24 1.12 -2.9 1.7 -4.76 1.7 c-3.92 0 -7.3 -2.94 -7.3 -7.2 s3.38 -7.2 7.3 -7.2 c1.84 0 3.48 0.6 4.68 1.66 l-1.76 1.98 c-0.74 -0.52 -1.74 -0.9 -2.76 -0.9 c-2.52 0 -4.42 1.86 -4.42 4.46 s1.9 4.46 4.42 4.46 c1.06 0 2.1 -0.4 2.86 -1 z M32.26 17.32 l5.92 0 l0 2.68 l-6.32 0 l-2.52 0 l0 -14 l2.92 0 l5.74 0 l0 2.68 l-5.74 0 l0 2.96 l4.34 0 l0 2.64 l-4.34 0 l0 3.04 z" fill="#111111"></path></g></svg>