<svg xmlns:xlink="http://www.w3.org/1999/xlink" xmlns="http://www.w3.org/2000/svg" class="css-ze2te4 css-qd6ojx" viewBox="0 0 30.82811817842371 36" width="110"  height="110" ><g transform="translate(-5.762260033102597, -3.176470588235294) scale(0.4235294117647059)" class="css-15idr9w" fill="#235784"><title xmlns="http://www.w3.org/2000/svg">cleaning</title><path xmlns="http://www.w3.org/2000/svg" d="M74.35,58.11C60,68.57,58.91,80.5,58.91,80.5c28.45-8.17,27.48-30.24,27.48-30.24C44.16,54.18,43.93,92.5,43.93,92.5,53.24,66.65,74.35,58.11,74.35,58.11Z" fill="#235784"></path><path xmlns="http://www.w3.org/2000/svg" d="M45.24,70.83s0-.11.09-.17a46.23,46.23,0,0,1,4.83-7.35c-.93-2.38-7.85-17.25-36.43-23,0,0-3.5,32,26.59,44.46a53.39,53.39,0,0,1,3-9.82C37.71,67.06,30.66,59.38,20.55,50,31.34,57,38.48,62.92,45.24,70.83Z" fill="#235784"></path><path xmlns="http://www.w3.org/2000/svg" d="M44.16,35.23c0-3.44-6-13-6-13s-6.26,9.58-6.26,13a6.13,6.13,0,1,0,12.26,0Z" fill="#235784"></path><path xmlns="http://www.w3.org/2000/svg" d="M55.28,16.9c0-2.48-4.33-9.4-4.33-9.4s-4.52,6.92-4.52,9.4a4.43,4.43,0,1,0,8.85,0Z" fill="#235784"></path><path xmlns="http://www.w3.org/2000/svg" d="M60.09,52.1a8.29,8.29,0,0,0,8.22-8.35c0-4.61-8-17.44-8-17.44s-8.39,12.83-8.39,17.44A8.28,8.28,0,0,0,60.09,52.1Z" fill="#235784"></path></g></svg>