<svg xmlns:xlink="http://www.w3.org/1999/xlink" xmlns="http://www.w3.org/2000/svg" viewBox="0 0 320 116.77650835397418" preserveAspectRatio="xMidYMid meet" class="css-1uxicuq" id="dfhgfbgh" width="320"  height="116.77650835397418" ><defs id="SvgjsDefs1001"></defs><g id="SvgjsG1007" featurekey="QMusi1-0" transform="matrix(1.3738412747526374,0,0,1.3738412747526374,-18.691572413704915,-10.30380956064478)" fill="#64EE85"><title xmlns="http://www.w3.org/2000/svg">cleaning</title><path xmlns="http://www.w3.org/2000/svg" d="M74.35,58.11C60,68.57,58.91,80.5,58.91,80.5c28.45-8.17,27.48-30.24,27.48-30.24C44.16,54.18,43.93,92.5,43.93,92.5,53.24,66.65,74.35,58.11,74.35,58.11Z" fill="#64EE85"></path><path xmlns="http://www.w3.org/2000/svg" d="M45.24,70.83s0-.11.09-.17a46.23,46.23,0,0,1,4.83-7.35c-.93-2.38-7.85-17.25-36.43-23,0,0-3.5,32,26.59,44.46a53.39,53.39,0,0,1,3-9.82C37.71,67.06,30.66,59.38,20.55,50,31.34,57,38.48,62.92,45.24,70.83Z" fill="#64EE85"></path><path xmlns="http://www.w3.org/2000/svg" d="M44.16,35.23c0-3.44-6-13-6-13s-6.26,9.58-6.26,13a6.13,6.13,0,1,0,12.26,0Z" fill="#64EE85"></path><path xmlns="http://www.w3.org/2000/svg" d="M55.28,16.9c0-2.48-4.33-9.4-4.33-9.4s-4.52,6.92-4.52,9.4a4.43,4.43,0,1,0,8.85,0Z" fill="#64EE85"></path><path xmlns="http://www.w3.org/2000/svg" d="M60.09,52.1a8.29,8.29,0,0,0,8.22-8.35c0-4.61-8-17.44-8-17.44s-8.39,12.83-8.39,17.44A8.28,8.28,0,0,0,60.09,52.1Z" fill="#64EE85"></path></g><g id="SvgjsG1008" featurekey="UyNsn2-0" transform="matrix(2.1244956182845174,0,0,2.1244956182845174,116.26088773208002,31.017844996526087)" fill="#FFFFFF"><path d="M3.7 13.84 l0 6.16 l-1.94 0 l0 -14.36 l6.64 0 c2.36 0 4.72 0.82 4.72 3.86 c0 2.12 -1.08 2.9 -2 3.44 c0.82 0.34 1.64 0.7 1.72 2.7 l0.12 2.6 c0.02 0.8 0.12 1.1 0.72 1.44 l0 0.32 l-2.38 0 c-0.28 -0.88 -0.34 -3.06 -0.34 -3.6 c0 -1.18 -0.24 -2.56 -2.56 -2.56 l-4.7 0 z M3.7 7.300000000000001 l0 4.88 l4.5 0 c1.42 0 2.92 -0.36 2.92 -2.48 c0 -2.22 -1.62 -2.4 -2.58 -2.4 l-4.84 0 z M22.86 16.72 l1.76 0 c-0.06 0.5 -0.54 1.98 -1.86 2.86 c-0.48 0.32 -1.16 0.72 -2.84 0.72 c-2.94 0 -4.68 -2.22 -4.68 -5.24 c0 -3.24 1.56 -5.82 5.02 -5.82 c3.02 0 4.5 2.4 4.5 6.1 l-7.64 0 c0 2.18 1.02 3.44 3.04 3.44 c1.66 0 2.64 -1.28 2.7 -2.06 z M17.12 13.940000000000001 l5.82 0 c-0.1 -1.62 -0.78 -3.12 -2.92 -3.12 c-1.62 0 -2.9 1.5 -2.9 3.12 z M29.220000000000002 13.48 l0 6.52 l-1.94 0 l0 -14.36 l9.94 0 l0 1.72 l-8 0 l0 4.4 l7.04 0 l0 1.72 l-7.04 0 z M40.88 9.54 l0 10.46 l-1.76 0 l0 -10.46 l1.76 0 z M40.88 7.640000000000001 l-1.76 0 l0 -2 l1.76 0 l0 2 z M52.04 12.879999999999999 l0 7.12 l-1.76 0 l0 -6.44 c0 -1.82 -0.52 -2.74 -2.24 -2.74 c-1 0 -2.76 0.64 -2.76 3.48 l0 5.7 l-1.76 0 l0 -10.46 l1.66 0 l0 1.48 l0.04 0 c0.38 -0.56 1.36 -1.78 3.16 -1.78 c1.62 0 3.66 0.66 3.66 3.64 z M56.2 12.719999999999999 l-1.62 0 c0.08 -2.5 1.74 -3.48 4.32 -3.48 c0.84 0 3.88 0.24 3.88 2.92 l0 6.02 c0 0.44 0.22 0.62 0.58 0.62 c0.16 0 0.38 -0.04 0.58 -0.08 l0 1.28 c-0.3 0.08 -0.56 0.2 -0.96 0.2 c-1.56 0 -1.8 -0.8 -1.86 -1.6 c-0.68 0.74 -1.74 1.7 -3.78 1.7 c-1.92 0 -3.28 -1.22 -3.28 -3.02 c0 -0.88 0.26 -2.92 3.18 -3.28 l2.9 -0.36 c0.42 -0.04 0.92 -0.2 0.92 -1.24 c0 -1.1 -0.8 -1.7 -2.46 -1.7 c-2 0 -2.28 1.22 -2.4 2.02 z M61.02 16.38 l0 -1.72 c-0.28 0.22 -0.72 0.38 -2.9 0.66 c-0.86 0.12 -2.24 0.38 -2.24 1.7 c0 1.14 0.58 1.82 1.9 1.82 c1.64 0 3.24 -1.06 3.24 -2.46 z M74.28 12.879999999999999 l0 7.12 l-1.76 0 l0 -6.44 c0 -1.82 -0.52 -2.74 -2.24 -2.74 c-1 0 -2.76 0.64 -2.76 3.48 l0 5.7 l-1.76 0 l0 -10.46 l1.66 0 l0 1.48 l0.04 0 c0.38 -0.56 1.36 -1.78 3.16 -1.78 c1.62 0 3.66 0.66 3.66 3.64 z M85.12 13.059999999999999 l-1.7 0 c-0.22 -1.4 -1 -2.24 -2.48 -2.24 c-2.18 0 -2.88 2.08 -2.88 3.94 c0 1.8 0.44 4.02 2.86 4.02 c1.18 0 2.2 -0.88 2.5 -2.48 l1.7 0 c-0.18 1.66 -1.2 4 -4.26 4 c-2.94 0 -4.68 -2.22 -4.68 -5.24 c0 -3.24 1.56 -5.82 5.02 -5.82 c2.74 0 3.78 2 3.92 3.82 z M94.00000000000001 16.72 l1.76 0 c-0.06 0.5 -0.54 1.98 -1.86 2.86 c-0.48 0.32 -1.16 0.72 -2.84 0.72 c-2.94 0 -4.68 -2.22 -4.68 -5.24 c0 -3.24 1.56 -5.82 5.02 -5.82 c3.02 0 4.5 2.4 4.5 6.1 l-7.64 0 c0 2.18 1.02 3.44 3.04 3.44 c1.66 0 2.64 -1.28 2.7 -2.06 z M88.26000000000002 13.940000000000001 l5.82 0 c-0.1 -1.62 -0.78 -3.12 -2.92 -3.12 c-1.62 0 -2.9 1.5 -2.9 3.12 z" fill="#FFFFFF"></path></g></svg>