<svg xmlns:xlink="http://www.w3.org/1999/xlink" xmlns="http://www.w3.org/2000/svg" viewBox="0 0 350 225.19224888219304" preserveAspectRatio="xMidYMid meet" class="css-g5ufxp" id="gfadcbbd" width="441"  height="247" ><defs id="SvgjsDefs1018"></defs><g id="SvgjsG1019" featurekey="pxMwYC-0" transform="matrix(1.8348011761499037,0,0,1.8348011761499037,83.03691315801252,-13.761008821124278)" fill="#111111"><title xmlns="http://www.w3.org/2000/svg">cleaning</title><path xmlns="http://www.w3.org/2000/svg" d="M74.35,58.11C60,68.57,58.91,80.5,58.91,80.5c28.45-8.17,27.48-30.24,27.48-30.24C44.16,54.18,43.93,92.5,43.93,92.5,53.24,66.65,74.35,58.11,74.35,58.11Z" fill="#111111"></path><path xmlns="http://www.w3.org/2000/svg" d="M45.24,70.83s0-.11.09-.17a46.23,46.23,0,0,1,4.83-7.35c-.93-2.38-7.85-17.25-36.43-23,0,0-3.5,32,26.59,44.46a53.39,53.39,0,0,1,3-9.82C37.71,67.06,30.66,59.38,20.55,50,31.34,57,38.48,62.92,45.24,70.83Z" fill="#111111"></path><path xmlns="http://www.w3.org/2000/svg" d="M44.16,35.23c0-3.44-6-13-6-13s-6.26,9.58-6.26,13a6.13,6.13,0,1,0,12.26,0Z" fill="#111111"></path><path xmlns="http://www.w3.org/2000/svg" d="M55.28,16.9c0-2.48-4.33-9.4-4.33-9.4s-4.52,6.92-4.52,9.4a4.43,4.43,0,1,0,8.85,0Z" fill="#111111"></path><path xmlns="http://www.w3.org/2000/svg" d="M60.09,52.1a8.29,8.29,0,0,0,8.22-8.35c0-4.61-8-17.44-8-17.44s-8.39,12.83-8.39,17.44A8.28,8.28,0,0,0,60.09,52.1Z" fill="#111111"></path></g><g id="SvgjsG1020" featurekey="Vx5QiU-0" transform="matrix(3.1412673285930017,0,0,3.1412673285930017,-4.900373108177859,161.48734530138984)" fill="#111111"><path d="M1.56 20 l0 -14.62 l6.5 0 q1.56 0 2.76 0.64 t1.86 1.8 t0.66 2.64 q0 1.58 -0.8 2.82 t-2.18 1.82 q1.42 1.8 3.78 4.9 l-3.78 0 q-1.28 -1.6 -3.5 -4.56 l-2.16 0 l0 4.56 l-3.14 0 z M8.06 12.7 q0.82 0 1.48 -0.59 t0.66 -1.65 q0 -0.86 -0.46 -1.6 t-1.68 -0.74 l-3.36 0 l0 4.58 l3.36 0 z M18.35 19.74 q-1.37 -0.54 -2.35 -1.83 t-0.98 -3.37 t0.99 -3.36 t2.37 -1.82 t2.62 -0.54 q1.44 0 2.74 0.64 t2.13 1.88 t0.87 2.94 q0 0.52 -0.02 0.9 t-0.04 0.48 l-8.68 0 q0.24 1.16 1.2 1.58 t1.8 0.42 q1.08 0 1.72 -0.39 t1.1 -0.89 l2.32 1.34 q-1.88 2.56 -5.14 2.56 q-1.28 0 -2.65 -0.54 z M18.96 12.05 q-0.78 0.61 -0.88 1.49 l5.5 0 q-0.06 -0.52 -0.4 -1 t-0.91 -0.79 t-1.29 -0.31 q-1.24 0 -2.02 0.61 z M32.5 11.34 l6.98 0 l0 2.74 l-6.98 0 l0 5.92 l-3.18 0 l0 -14.62 l11.08 0 l0 2.74 l-7.9 0 l0 3.22 z M44.9 7.369999999999999 q-0.48 0.47 -1.16 0.47 q-0.7 0 -1.19 -0.47 t-0.49 -1.15 q0 -0.66 0.49 -1.13 t1.19 -0.47 q0.68 0 1.16 0.47 t0.48 1.13 q0 0.68 -0.48 1.15 z M42.24 9.02 l3 0 l0 10.98 l-3 0 l0 -10.98 z M57.41 10.02 q1.03 1.22 1.03 3.48 l0 6.5 l-3.06 0 l0 -6.5 q0 -2.22 -2.12 -2.22 q-0.82 0 -1.48 0.65 t-0.62 2.25 l0 5.82 l-2.98 0 l0 -11 l2.98 0 l0 0.98 q0.54 -0.54 1.36 -0.86 t1.58 -0.32 q2.28 0 3.31 1.22 z M69.7 18.9 q-0.38 0.52 -1.31 0.93 t-2.03 0.41 q-1.7 0 -2.95 -0.76 t-1.91 -2.07 t-0.66 -2.91 t0.66 -2.91 t1.91 -2.07 t2.95 -0.76 q1.14 0 2.01 0.39 t1.33 0.99 l0 -1.14 l2.96 0 l0 11 l-2.96 0 l0 -1.1 z M69 12.25 q-0.82 -0.87 -2.2 -0.87 q-1.4 0 -2.21 0.87 t-0.81 2.25 q0 1.34 0.83 2.22 t2.19 0.88 q1.4 0 2.21 -0.83 t0.81 -2.27 q0 -1.38 -0.82 -2.25 z M84.83000000000001 10.02 q1.03 1.22 1.03 3.48 l0 6.5 l-3.06 0 l0 -6.5 q0 -2.22 -2.12 -2.22 q-0.82 0 -1.48 0.65 t-0.62 2.25 l0 5.82 l-2.98 0 l0 -11 l2.98 0 l0 0.98 q0.54 -0.54 1.36 -0.86 t1.58 -0.32 q2.28 0 3.31 1.22 z M91.26 19.51 q-1.38 -0.77 -2.19 -2.09 t-0.81 -2.88 t0.81 -2.87 t2.18 -2.08 t2.99 -0.77 q1.74 0 3.15 0.83 t2.25 2.37 l-2.7 1.06 q-0.48 -0.82 -1.18 -1.23 t-1.52 -0.41 q-1.3 0 -2.15 0.88 t-0.85 2.22 t0.86 2.22 t2.16 0.88 q1.8 0 2.78 -1.6 l2.54 1 q-1.58 3.24 -5.32 3.24 q-1.62 0 -3 -0.77 z M104.59 19.74 q-1.37 -0.54 -2.35 -1.83 t-0.98 -3.37 t0.99 -3.36 t2.37 -1.82 t2.62 -0.54 q1.44 0 2.74 0.64 t2.13 1.88 t0.87 2.94 q0 0.52 -0.02 0.9 t-0.04 0.48 l-8.68 0 q0.24 1.16 1.2 1.58 t1.8 0.42 q1.08 0 1.72 -0.39 t1.1 -0.89 l2.32 1.34 q-1.88 2.56 -5.14 2.56 q-1.28 0 -2.65 -0.54 z M105.2 12.05 q-0.78 0.61 -0.88 1.49 l5.5 0 q-0.06 -0.52 -0.4 -1 t-0.91 -0.79 t-1.29 -0.31 q-1.24 0 -2.02 0.61 z" fill="#111111"></path></g></svg>