<svg xmlns:xlink="http://www.w3.org/1999/xlink" xmlns="http://www.w3.org/2000/svg" width="320" height="116.77650835397418" viewBox="0 0 320 116.77650835397418" class="css-1j8o68f"><defs id="SvgjsDefs1328"></defs><g id="SvgjsG1329" featurekey="QMusi1-0" transform="matrix(1.3738412747526374,0,0,1.3738412747526374,-18.691572413704915,-10.30380956064478)" fill="#64EE85"><title xmlns="http://www.w3.org/2000/svg">cleaning</title><path xmlns="http://www.w3.org/2000/svg" d="M74.35,58.11C60,68.57,58.91,80.5,58.91,80.5c28.45-8.17,27.48-30.24,27.48-30.24C44.16,54.18,43.93,92.5,43.93,92.5,53.24,66.65,74.35,58.11,74.35,58.11Z" fill="#64EE85"></path><path xmlns="http://www.w3.org/2000/svg" d="M45.24,70.83s0-.11.09-.17a46.23,46.23,0,0,1,4.83-7.35c-.93-2.38-7.85-17.25-36.43-23,0,0-3.5,32,26.59,44.46a53.39,53.39,0,0,1,3-9.82C37.71,67.06,30.66,59.38,20.55,50,31.34,57,38.48,62.92,45.24,70.83Z" fill="#64EE85"></path><path xmlns="http://www.w3.org/2000/svg" d="M44.16,35.23c0-3.44-6-13-6-13s-6.26,9.58-6.26,13a6.13,6.13,0,1,0,12.26,0Z" fill="#64EE85"></path><path xmlns="http://www.w3.org/2000/svg" d="M55.28,16.9c0-2.48-4.33-9.4-4.33-9.4s-4.52,6.92-4.52,9.4a4.43,4.43,0,1,0,8.85,0Z" fill="#64EE85"></path><path xmlns="http://www.w3.org/2000/svg" d="M60.09,52.1a8.29,8.29,0,0,0,8.22-8.35c0-4.61-8-17.44-8-17.44s-8.39,12.83-8.39,17.44A8.28,8.28,0,0,0,60.09,52.1Z" fill="#64EE85"></path></g><g id="SvgjsG1330" featurekey="UyNsn2-0" transform="matrix(2.2451726398704337,0,0,2.2451726398704337,116.9914685876329,29.516840250790196)" fill="#FFFFFF"><path d="M1.34 5.82 c0.64 -0.08 1.2266 -0.14334 1.76 -0.19 s1.1 -0.07 1.7 -0.07 c0.73334 0 1.4633 0.07 2.19 0.21 s1.3767 0.38334 1.95 0.73 s1.0367 0.81332 1.39 1.4 s0.53 1.3333 0.53 2.24 c0 0.52 -0.07 0.98666 -0.21 1.4 s-0.31334 0.77668 -0.52 1.09 s-0.43666 0.58668 -0.69 0.82002 s-0.5 0.43 -0.74 0.59 l-0.1 0.06 l0.27 0.44 l0.66 1.1 l0.85 1.42 l0.85 1.41 l0.64 1.09 l0.25 0.42 l-3.66 0 l-3.78 -6.58 l0 6.6 l-3.34 0 l0 -14.18 z M4.68 13.280000000000001 l0.7 -0.32 c0.17334 -0.08 0.38 -0.18 0.62 -0.3 s0.47334 -0.27666 0.7 -0.47 s0.42 -0.42334 0.58 -0.69 s0.24 -0.59332 0.24 -0.97998 c0 -0.41334 -0.06 -0.75668 -0.18 -1.03 s-0.28666 -0.49334 -0.5 -0.66 s-0.46334 -0.28666 -0.75 -0.36 s-0.59666 -0.11 -0.93 -0.11 l-0.23 0 l-0.25 0.02 l0 4.9 z M17.32 9.44 c0.69334 0 1.3166 0.096622 1.87 0.28996 s1.0167 0.50668 1.39 0.94002 s0.66 0.99 0.86 1.67 s0.3 1.5 0.3 2.46 l0 0.31 l-0.04 0.63 l-5.6 0 l-0.42 -0.06 c0.01334 0.38666 0.05668 0.69666 0.13002 0.93 s0.18 0.41668 0.32 0.55002 s0.31 0.22668 0.51 0.28002 s0.42666 0.08668 0.68 0.10002 c0.41334 0.02666 0.77 -0.03334 1.07 -0.18 s0.58334 -0.44666 0.85 -0.9 c0.41334 0.13334 0.79334 0.26 1.14 0.38 c0.29334 0.10666 0.56 0.2 0.8 0.28 s0.36 0.11334 0.36 0.1 c-0.48 1 -1.0633 1.73 -1.75 2.19 s-1.51 0.69 -2.47 0.69 c-0.70666 0 -1.3467 -0.09334 -1.92 -0.28 s-1.06 -0.49 -1.46 -0.91 s-0.71 -0.96666 -0.93 -1.64 s-0.33 -1.4967 -0.33 -2.47 c0 -0.94666 0.11 -1.7567 0.33 -2.43 s0.53 -1.2267 0.93 -1.66 s0.88666 -0.75334 1.46 -0.96 s1.2133 -0.31 1.92 -0.31 z M18.42 13.440000000000001 l0.30004 0.04 c-0.02666 -0.46666 -0.15 -0.83 -0.37 -1.09 s-0.56334 -0.39 -1.03 -0.39 c-0.53334 0 -0.91668 0.13 -1.15 0.39 s-0.37668 0.62334 -0.43002 1.09 c0.06666 -0.01334 0.12666 -0.02334 0.18 -0.03 s0.11334 -0.01 0.18 -0.01 l2.32 0 z M23.84 5.720000000000001 l8.42 -0.000019531 c-0.14666 0.53334 -0.28666 1.0067 -0.42 1.42 c-0.10666 0.34666 -0.20666 0.66666 -0.3 0.96 s-0.14668 0.44 -0.16002 0.44 l-4.32 0 l0.04 0.44 l0 2.46 l4.04 0 l0 2.86 l-4.04 0 l0 5.7 l-3.26 0 l0 -14.28 z M36.739999999999995 9.56 l0 10.44 l-3.02 0 l0 -7.22 l0.1 -0.72 l-1.72 0 l1.36 -2.5 l3.28 0 z M36.66 8.7 l-3 0 l0 -2.72 l3 0 l0 2.72 z M39.3 12.04 l-1.68 0 l1.32 -2.48 l2.9 0 l0.26 1.12 c0.33334 -0.36 0.73 -0.66 1.19 -0.9 s0.99 -0.36 1.59 -0.36 c1.2133 0 2.1134 0.32334 2.7 0.97 s0.88 1.67 0.88 3.07 l0 6.54 l-3.04 0 l0 -6.02 c0 -0.61334 -0.15 -1.0533 -0.45 -1.32 s-0.68334 -0.4 -1.15 -0.4 c-0.38666 0 -0.73332 0.13 -1.04 0.39 s-0.46 0.69 -0.46 1.29 l0 6.06 l-3.02 0 l0 -7.96 z M55.94 15.42 c-0.13334 -0.02666 -0.2733 -0.04338 -0.41996 -0.050038 s-0.27332 -0.01 -0.37998 -0.01 c-0.56 0 -1.0133 0.08666 -1.36 0.26 s-0.52 0.47334 -0.52 0.9 c0 0.26666 0.06334 0.47666 0.19 0.63 s0.28332 0.26668 0.46998 0.34002 s0.38332 0.11668 0.58998 0.13002 s0.38332 0.02 0.52998 0.02 c0.26666 0 0.56666 -0.03334 0.9 -0.1 l0 -2.12 z M54.89999999999999 13.219999999999999 c0.10666 0 0.24996 0.0033594 0.42996 0.01002 s0.38334 0.01666 0.61 0.03 c-0.01334 -0.52 -0.19668 -0.85666 -0.55002 -1.01 s-0.81 -0.23 -1.37 -0.23 c-0.30666 0 -0.66 0.03666 -1.06 0.11 s-0.83334 0.18334 -1.3 0.33 l-0.32 -1.1 c-0.04 -0.14666 -0.09666 -0.36 -0.17 -0.64 s-0.12334 -0.5 -0.15 -0.66 c0.66666 -0.22666 1.2967 -0.39 1.89 -0.49 s1.13 -0.15 1.61 -0.15 c1.4133 0 2.5066 0.33666 3.28 1.01 s1.16 1.75 1.16 3.23 l0 5.86 c-0.52 0.14666 -1.12 0.29 -1.8 0.43 s-1.4133 0.21 -2.2 0.21 c-0.69334 0 -1.3233 -0.06 -1.89 -0.18 s-1.0533 -0.32 -1.46 -0.6 s-0.72 -0.64666 -0.94 -1.1 s-0.33 -1.0067 -0.33 -1.66 s0.13666 -1.2 0.41 -1.64 s0.62668 -0.79 1.06 -1.05 s0.92 -0.44334 1.46 -0.55 s1.0833 -0.16 1.63 -0.16 z M61.099999999999994 12.04 l-1.68 0 l1.32 -2.48 l2.9 0 l0.26 1.12 c0.33334 -0.36 0.73 -0.66 1.19 -0.9 s0.99 -0.36 1.59 -0.36 c1.2133 0 2.1134 0.32334 2.7 0.97 s0.88 1.67 0.88 3.07 l0 6.54 l-3.04 0 l0 -6.02 c0 -0.61334 -0.15 -1.0533 -0.45 -1.32 s-0.68334 -0.4 -1.15 -0.4 c-0.38666 0 -0.73332 0.13 -1.04 0.39 s-0.46 0.69 -0.46 1.29 l0 6.06 l-3.02 0 l0 -7.96 z M80.9 18.88 c-0.53334 0.42666 -1.1067 0.74334 -1.72 0.95 s-1.24 0.31 -1.88 0.31 c-0.69334 0 -1.3467 -0.09334 -1.96 -0.28 s-1.15 -0.49 -1.61 -0.91 s-0.82334 -0.96666 -1.09 -1.64 s-0.4 -1.49 -0.4 -2.45 c0 -0.94666 0.13334 -1.7567 0.4 -2.43 s0.63 -1.2267 1.09 -1.66 s0.99666 -0.75334 1.61 -0.96 s1.2667 -0.31 1.96 -0.31 c0.42666 0 0.89332 0.06 1.4 0.18 s1.0133 0.3 1.52 0.54 l-1.32 2.16 c-0.22666 -0.10666 -0.49332 -0.18332 -0.79998 -0.22998 s-0.57332 -0.07 -0.79998 -0.07 c-0.61334 0 -1.1233 0.21666 -1.53 0.65 s-0.61 1.1433 -0.61 2.13 c0 0.50666 0.05334 0.92 0.16 1.24 s0.25666 0.58 0.45 0.78 s0.42 0.34666 0.68 0.44 s0.54334 0.15334 0.85 0.18 c0.41334 0.04 0.82334 0.0066602 1.23 -0.1 s0.77 -0.28 1.09 -0.52 z M86 9.44 c0.69334 0 1.3166 0.096622 1.87 0.28996 s1.0167 0.50668 1.39 0.94002 s0.66 0.99 0.86 1.67 s0.3 1.5 0.3 2.46 l0 0.31 l-0.04 0.63 l-5.6 0 l-0.42 -0.06 c0.01334 0.38666 0.05668 0.69666 0.13002 0.93 s0.18 0.41668 0.32 0.55002 s0.31 0.22668 0.51 0.28002 s0.42666 0.08668 0.68 0.10002 c0.41334 0.02666 0.77 -0.03334 1.07 -0.18 s0.58334 -0.44666 0.85 -0.9 c0.41334 0.13334 0.79334 0.26 1.14 0.38 c0.29334 0.10666 0.56 0.2 0.8 0.28 s0.36 0.11334 0.36 0.1 c-0.48 1 -1.0633 1.73 -1.75 2.19 s-1.51 0.69 -2.47 0.69 c-0.70666 0 -1.3467 -0.09334 -1.92 -0.28 s-1.06 -0.49 -1.46 -0.91 s-0.71 -0.96666 -0.93 -1.64 s-0.33 -1.4967 -0.33 -2.47 c0 -0.94666 0.11 -1.7567 0.33 -2.43 s0.53 -1.2267 0.93 -1.66 s0.88666 -0.75334 1.46 -0.96 s1.2133 -0.31 1.92 -0.31 z M87.10000000000001 13.440000000000001 l0.30004 0.04 c-0.02666 -0.46666 -0.15 -0.83 -0.37 -1.09 s-0.56334 -0.39 -1.03 -0.39 c-0.53334 0 -0.91668 0.13 -1.15 0.39 s-0.37668 0.62334 -0.43002 1.09 c0.06666 -0.01334 0.12666 -0.02334 0.18 -0.03 s0.11334 -0.01 0.18 -0.01 l2.32 0 z" fill="#FFFFFF"></path></g></svg>